<?xml version="1.0" encoding="UTF-8"?>
<svg version="1.1" xmlns="http://www.w3.org/2000/svg" width="375" height="375">
<path d="M0 0 C5.89945145 4.39118506 11.04793218 9.89939261 16.23608398 15.09082031 C17.40585533 16.25555374 17.40585533 16.25555374 18.59925842 17.44381714 C21.15083194 19.98596633 23.69868859 22.5317993 26.24609375 25.078125 C28.0258109 26.85462646 29.80560228 28.63105354 31.58546448 30.40740967 C35.3015105 34.11748785 39.01552705 37.82958716 42.72827148 41.54296875 C47.01933674 45.83463747 51.31598031 50.12066557 55.61520523 54.40415883 C59.76187086 58.53619217 63.90301436 62.67372281 68.04207039 66.81337738 C69.80079005 68.57091476 71.56113658 70.32682569 73.32311821 72.08109283 C75.77672375 74.52494923 78.22396988 76.97500135 80.66967773 79.42675781 C81.40157318 80.15303375 82.13346863 80.87930969 82.88754272 81.62759399 C83.55048843 82.29473419 84.21343414 82.96187439 84.89646912 83.64923096 C85.47510428 84.22732136 86.05373945 84.80541176 86.64990902 85.40102005 C89.21342022 88.43711397 89.46411048 91.96443662 89.4042654 95.83948326 C88.061883 103.01358133 80.01215513 109.27959432 75.05444336 114.22021484 C74.28131302 114.99845612 73.50818268 115.77669739 72.71162415 116.57852173 C70.17614103 119.12781079 67.63339384 121.669699 65.08984375 124.2109375 C63.31655801 125.98811308 61.54349521 127.76551115 59.77064514 129.54312134 C56.06460499 133.25660281 52.35480306 136.96628742 48.64233398 140.67333984 C44.35619619 144.95342015 40.07936132 149.24263986 35.80688757 153.53635633 C31.68301743 157.6799705 27.55083039 161.81520364 23.41531563 165.94719315 C21.66147411 167.70154824 19.90999675 169.45827011 18.16093254 171.21738815 C15.71976926 173.67086582 13.26928434 176.11463989 10.81616211 178.55615234 C10.09550568 179.28445251 9.37484924 180.01275269 8.63235474 180.76312256 C7.96102005 181.42744293 7.28968536 182.09176331 6.5980072 182.7762146 C6.02046157 183.35392797 5.44291594 183.93164135 4.84786892 184.52686119 C1.5454211 187.15960424 -1.97528881 188.40087655 -6.1875 188.1875 C-18.14321866 186.17725423 -30.27335508 168.89089398 -38.53125 160.63671875 C-40.2160332 158.95515354 -41.90088957 157.27366164 -43.58581543 155.59223938 C-47.09739367 152.08661766 -50.60693083 148.57896712 -54.11523438 145.07006836 C-58.61377596 140.57142454 -63.11919531 136.07973632 -67.6263504 131.58972454 C-71.09894736 128.12822527 -74.56701099 124.66221176 -78.03379822 121.19489479 C-79.69400248 119.53587097 -81.35582943 117.87846936 -83.01930237 116.22272301 C-85.33599116 113.91580276 -87.64629288 111.60266822 -89.95507812 109.2878418 C-90.64283325 108.60570618 -91.33058838 107.92357056 -92.03918457 107.22076416 C-92.66695801 106.58879623 -93.29473145 105.95682831 -93.94152832 105.30570984 C-94.75995586 104.48809945 -94.75995586 104.48809945 -95.5949173 103.65397167 C-98.99289553 99.65409342 -99.6636235 95.83819296 -99.46266174 90.69470215 C-98.94327277 87.669601 -98.28675184 86.6452226 -96.21850586 84.43164062 C-95.26063675 83.40018921 -95.26063675 83.40018921 -94.28341675 82.34790039 C-89.54183049 77.47241183 -84.76182405 72.64111548 -79.94140625 67.84375 C-78.78533837 66.68955106 -77.62949394 65.53512828 -76.47386169 64.38049316 C-73.4561667 61.36658592 -70.43547913 58.35569597 -67.41412354 55.34545898 C-64.32176853 52.26339926 -61.23230132 49.17844767 -58.14257812 46.09375 C-52.09784888 40.05969196 -46.04994994 34.02882357 -40 28 C-34.93274245 32.32836466 -29.90932646 36.67429141 -25.0625 41.25 C-24.37865234 41.85457031 -23.69480469 42.45914063 -22.99023438 43.08203125 C-18.1926564 47.67351946 -18.1926564 47.67351946 -17.62353516 51.59204102 C-17.66796875 54.26953125 -17.66796875 54.26953125 -17.92260742 56.74926758 C-18.0482912 60.40440547 -16.33386511 62.34198696 -14 65 C-12.9573851 65.66317734 -12.9573851 65.66317734 -11.89370728 66.3397522 C-10 68 -10 68 -9.47860718 70.33920288 C-9.4693924 71.25899933 -9.46017761 72.17879578 -9.45068359 73.12646484 C-9.42208755 74.69356705 -9.42208755 74.69356705 -9.39291382 76.29232788 C-9.39473663 77.42046906 -9.39655945 78.54861023 -9.3984375 79.7109375 C-9.38986725 80.87122467 -9.381297 82.03151184 -9.37246704 83.22695923 C-9.36097288 85.68318063 -9.35998555 88.13947012 -9.36865234 90.59570312 C-9.37496481 94.35404826 -9.32810028 98.10923299 -9.27734375 101.8671875 C-9.27279698 104.25260019 -9.27139114 106.63802136 -9.2734375 109.0234375 C-9.25501801 110.14753021 -9.23659851 111.27162292 -9.21762085 112.42977905 C-9.30837446 120.08661078 -9.30837446 120.08661078 -11.34489441 122.77612305 C-12.97485352 124.11474609 -12.97485352 124.11474609 -16 126 C-18.39150186 130.53475094 -18.29853406 135.08001637 -16.9375 139.9375 C-15.73833752 143.01570726 -15.36632886 143.7855636 -12.4375 145.5 C-11.633125 145.665 -10.82875 145.83 -10 146 C-9.34 146.33 -8.68 146.66 -8 147 C-3.49722327 147.0442316 0.0802786 146.56748767 3.9375 144.1875 C7.82032745 140.06934968 8.38971251 136.69732777 8.25390625 131.18359375 C7.90081083 128.14697312 6.93395134 126.34836948 5 124 C4.31327209 123.56664841 3.62654419 123.13329681 2.91900635 122.68681335 C1 121 1 121 0.51898193 118.66511536 C0.5323056 117.28944649 0.5323056 117.28944649 0.54589844 115.88598633 C0.54620056 114.84513382 0.54650269 113.80428131 0.54681396 112.73188782 C0.56745911 111.60993515 0.58810425 110.48798248 0.609375 109.33203125 C0.61503479 108.18208176 0.62069458 107.03213226 0.62652588 105.84733582 C0.64894526 102.1686366 0.6991542 98.49090563 0.75 94.8125 C0.7700577 92.32097759 0.78830974 89.82943994 0.8046875 87.33789062 C0.84882834 81.22492916 0.91579651 75.11253374 1 69 C5.7456911 73.04874732 10.4335078 77.11966592 14.9375 81.4375 C15.52595703 81.97181641 16.11441406 82.50613281 16.72070312 83.05664062 C19.81539885 86.05069584 20.93046499 87.2463044 21.33984375 91.68359375 C21.17162109 93.32521484 21.17162109 93.32521484 21 95 C21.77057283 99.46932239 22.57047196 101.54050489 25.6875 104.875 C29.47131109 107.30235051 31.50677767 108.07746935 36 108 C40.07098321 106.71561231 43.11621386 104.96664109 46 101.8125 C47.43011999 97.79028753 47.67565674 94.21728601 47 90 C44.92797101 85.92994306 43.2502787 83.64396223 39 82 C37.30692633 81.94246588 35.61175416 81.93485012 33.91796875 81.96484375 C26.30606523 81.37619663 22.38571669 76.86338535 17.3125 71.5625 C16.40822266 70.69689453 15.50394531 69.83128906 14.57226562 68.93945312 C8.28936981 62.56157778 8.28936981 62.56157778 7.48706055 58.23193359 C7.53125 55.55859375 7.53125 55.55859375 7.84960938 53.15795898 C8.21146236 50.66482899 8.21146236 50.66482899 6.1875 47.5 C4.06495548 44.85486935 4.06495548 44.85486935 1 43 C-0.66251637 42.96919636 -2.32617996 42.98689828 -3.98828125 43.03515625 C-11.9511596 42.43816998 -16.07443907 37.02808028 -21.1875 31.4375 C-22.14669135 30.42805526 -23.10826602 29.42086959 -24.07226562 28.41601562 C-26.40586268 25.96515238 -28.71287302 23.49415003 -31 21 C-28.78563549 16.01422423 -25.05753226 12.6893558 -21.25 8.875 C-20.54617187 8.14667969 -19.84234375 7.41835937 -19.1171875 6.66796875 C-13.29923168 0.8175708 -8.47148571 -2.48302167 0 0 Z " fill="#F03B2D" transform="translate(100,94)"/>
<path d="M0 0 C1.10480713 0.00966797 1.10480713 0.00966797 2.23193359 0.01953125 C14.96957585 0.18189116 27.70830072 0.71791162 40.4375 1.1875 C40.4375 5.4775 40.4375 9.7675 40.4375 14.1875 C37.1375 14.5175 33.8375 14.8475 30.4375 15.1875 C30.9325 16.5075 31.4275 17.8275 31.9375 19.1875 C34.47510751 26.92116097 34.13967181 33.83604455 30.4375 41.1875 C26.16102203 47.22208559 20.5410349 50.42605435 13.4375 52.1875 C6.38055835 53.18553072 -0.56057347 53.68791283 -7.5625 52.1875 C-8.5525 54.6625 -8.5525 54.6625 -9.5625 57.1875 C-8.6152002 57.25743164 -7.66790039 57.32736328 -6.69189453 57.39941406 C-3.13078553 57.66661566 0.42835355 57.95506612 3.98730469 58.24951172 C5.5190828 58.3733535 7.05132031 58.49165686 8.58398438 58.60400391 C30.30008721 60.20577912 30.30008721 60.20577912 36.5 67.25 C40.40978197 73.17773395 39.88019344 79.30021171 39.4375 86.1875 C37.6991436 92.05445285 33.36341464 95.77087233 28.4375 99.1875 C19.47282487 103.71070994 11.27534818 104.39093752 1.375 104.4375 C-0.22891602 104.4684375 -0.22891602 104.4684375 -1.86523438 104.5 C-12.38697195 104.55086036 -22.48573625 103.38635464 -30.5625 96.1875 C-33.31172121 91.76645509 -33.2321918 87.24133698 -32.5625 82.1875 C-31.45633021 79.64330949 -30.06711503 77.53846099 -28.5625 75.1875 C-28.18926173 71.27474445 -28.18926173 71.27474445 -30.125 68.875 C-31.5625 66.1875 -31.5625 66.1875 -31.6875 62.875 C-30.36748277 58.54827687 -28.43642419 56.30472719 -25.3515625 53.08203125 C-23.58643594 51.21284701 -22.06728344 49.26927095 -20.5625 47.1875 C-21.47 46.56875 -22.3775 45.95 -23.3125 45.3125 C-28.2949157 41.09751799 -30.13513891 35.5366155 -30.9453125 29.1875 C-31.26206577 20.90968116 -29.51726037 14.78112748 -24.25 8.375 C-16.87666824 2.37345089 -9.6242455 -0.10348651 0 0 Z M-9.5625 20.1875 C-10.8875985 24.59051716 -10.8715357 28.29292297 -9.375 32.625 C-7.44284713 35.35666441 -6.60116231 36.00194107 -3.5625 37.1875 C1.46365829 37.90877649 6.75343064 38.2830828 11.0625 35.25 C14.16008691 31.2557432 14.80781745 28.18678554 14.4375 23.1875 C13.16460482 19.14418591 12.15054701 17.66286468 8.625 15.3125 C1.59579854 12.83160537 -4.7102757 14.33184121 -9.5625 20.1875 Z M-14.5 78.875 C-15.75464083 81.60568887 -16.01952746 83.21682151 -15.5625 86.1875 C-12.56036306 90.18044121 -8.582934 90.22720407 -3.90234375 90.90234375 C3.60153766 91.54302602 10.95517605 91.39225067 17.4375 87.1875 C18.70222065 86.13320314 18.70222065 86.13320314 18.6875 83.75 C18.605 82.904375 18.5225 82.05875 18.4375 81.1875 C15.38762188 79.15424792 14.30244066 78.86829984 10.796875 78.5546875 C9.89066406 78.47089844 8.98445313 78.38710937 8.05078125 78.30078125 C7.10589844 78.22214844 6.16101563 78.14351563 5.1875 78.0625 C3.79337891 77.93294922 3.79337891 77.93294922 2.37109375 77.80078125 C-6.58139729 76.36152662 -6.58139729 76.36152662 -14.5 78.875 Z " fill="#352600" transform="translate(235.5625,151.8125)"/>
<path d="M0 0 C4.62 0 9.24 0 14 0 C14.33 6.6 14.66 13.2 15 20 C21.27 20.33 27.54 20.66 34 21 C34 25.62 34 30.24 34 35 C27.4 35 20.8 35 14 35 C14.495 55.295 14.495 55.295 15 76 C21.49372246 77.62343061 27.4857805 77.08570325 34 76 C37.42857143 84.42857143 37.42857143 84.42857143 37 89 C35.58521865 89.64995297 34.16808513 90.29478722 32.75 90.9375 C31.96109375 91.29714844 31.1721875 91.65679687 30.359375 92.02734375 C22.404913 95.30658388 10.49338063 95.56995136 2.25 92.875 C-2.82911351 89.94474221 -5.36428009 87.03319571 -7.12060547 81.41601562 C-8.2360715 76.61177666 -8.25309314 71.94254787 -8.1953125 67.03125 C-8.1924826 66.11033569 -8.18965271 65.18942139 -8.18673706 64.24060059 C-8.17562775 61.32692948 -8.15054078 58.41357669 -8.125 55.5 C-8.11495823 53.5130253 -8.10583448 51.52604574 -8.09765625 49.5390625 C-8.07571879 44.69258748 -8.04125361 39.84634753 -8 35 C-11.3 35 -14.6 35 -18 35 C-18 30.71 -18 26.42 -18 22 C-15.52604167 21.12109375 -13.05208333 20.2421875 -10.578125 19.36328125 C-6.2529325 17.07617188 -4.4501117 14.18501628 -2.734375 9.66796875 C-2.40953125 8.51941406 -2.0846875 7.37085938 -1.75 6.1875 C-1.1725 4.145625 -0.595 2.10375 0 0 Z " fill="#352600" transform="translate(338,130)"/>
<path d="M0 0 C9.9 0 19.8 0 30 0 C30.33 19.47 30.66 38.94 31 59 C33.64 59.33 36.28 59.66 39 60 C39 63.96 39 67.92 39 72 C25.8 72 12.6 72 -1 72 C-1 68.04 -1 64.08 -1 60 C3.455 59.505 3.455 59.505 8 59 C7.67 44.48 7.34 29.96 7 15 C4.36 14.01 1.72 13.02 -1 12 C-0.67 8.04 -0.34 4.08 0 0 Z " fill="#352600" transform="translate(283,152)"/>
<path d="M0 0 C3.32179766 1.79377074 4.47908215 3.08219236 6.3125 6.3125 C7.46441003 10.81542101 7.69630992 14.46811817 5.75 18.75 C2.72303664 22.64181004 0.49808255 24.10642658 -4.375 24.875 C-8.70871376 25.22426312 -11.35539157 24.51651534 -15 22 C-18.32702005 19.01715443 -18.72125819 15.53265354 -19.06640625 11.25 C-18.9665857 7.86784506 -17.90354951 5.75686481 -16 3 C-11.3737453 -1.34618995 -5.99569704 -0.73818431 0 0 Z " fill="#352600" transform="translate(306,117)"/>
</svg>
